<?xml version="1.0" encoding="utf-8"?>
<!-- Generator: Adobe Illustrator 17.0.0, SVG Export Plug-In . SVG Version: 6.00 Build 0)  -->
<!DOCTYPE svg PUBLIC "-//W3C//DTD SVG 1.1//EN" "http://www.w3.org/Graphics/SVG/1.1/DTD/svg11.dtd">
<svg version="1.1" id="Calque_1" xmlns="http://www.w3.org/2000/svg" xmlns:xlink="http://www.w3.org/1999/xlink" x="0px" y="0px"
	 width="31px" height="62px" viewBox="0 0 31 62" enable-background="new 0 0 31 62" xml:space="preserve">
<g>
	<path d="M4.126,22.756c1.984-2.626,3.925-5.195,5.881-7.783c1.399,1.048,2.771,2.077,4.144,3.106
		c0.333,0.25,0.679,0.485,0.994,0.756c0.252,0.217,0.435,0.211,0.706,0.004c1.623-1.24,3.262-2.46,4.896-3.686
		c0.072-0.054,0.147-0.102,0.249-0.172c1.947,2.577,3.889,5.147,5.874,7.774C19.27,22.756,11.744,22.756,4.126,22.756z"/>
	<path d="M27.272,8.448c-4.016,2.952-7.923,5.825-11.847,8.71c-3.882-2.902-7.753-5.796-11.731-8.769
		c0.358-0.062,0.594-0.139,0.83-0.14c7.263-0.006,14.527-0.007,21.79,0.003C26.598,8.251,26.882,8.364,27.272,8.448z"/>
	<path d="M3,21.682c0-3.976,0-7.951,0-11.978c1.946,1.461,3.875,2.909,5.847,4.39c-1.926,2.546-3.842,5.079-5.759,7.611
		C3.059,21.698,3.029,21.69,3,21.682z"/>
	<path d="M27.914,21.711c-1.912-2.527-3.824-5.053-5.764-7.615c1.956-1.469,3.892-2.924,5.85-4.395c0,4.031,0,8.009,0,11.986
		C27.971,21.695,27.942,21.703,27.914,21.711z"/>
</g>
<g>
	<path fill="#FFFFFF" d="M4.106,53.756c1.984-2.626,3.925-5.195,5.881-7.783c1.399,1.048,2.771,2.077,4.144,3.106
		c0.333,0.25,0.679,0.485,0.994,0.756c0.252,0.217,0.435,0.211,0.706,0.004c1.623-1.24,3.262-2.46,4.896-3.686
		c0.072-0.054,0.147-0.102,0.249-0.172c1.947,2.577,3.889,5.147,5.874,7.774C19.25,53.756,11.723,53.756,4.106,53.756z"/>
	<path fill="#FFFFFF" d="M27.251,39.448c-4.016,2.952-7.923,5.825-11.847,8.71c-3.882-2.902-7.753-5.796-11.731-8.769
		c0.358-0.062,0.594-0.139,0.83-0.14c7.263-0.006,14.527-0.007,21.79,0.003C26.577,39.251,26.861,39.364,27.251,39.448z"/>
	<path fill="#FFFFFF" d="M2.979,52.682c0-3.976,0-7.951,0-11.978c1.946,1.461,3.875,2.909,5.847,4.39
		C6.9,47.64,4.984,50.173,3.067,52.705C3.038,52.698,3.009,52.69,2.979,52.682z"/>
	<path fill="#FFFFFF" d="M27.893,52.711c-1.912-2.527-3.824-5.053-5.764-7.615c1.956-1.469,3.892-2.924,5.85-4.395
		c0,4.031,0,8.009,0,11.986C27.95,52.695,27.922,52.703,27.893,52.711z"/>
</g>
</svg>
