<?xml version="1.0" encoding="utf-8"?>
<!-- Generator: Adobe Illustrator 17.0.0, SVG Export Plug-In . SVG Version: 6.00 Build 0)  -->
<!DOCTYPE svg PUBLIC "-//W3C//DTD SVG 1.1//EN" "http://www.w3.org/Graphics/SVG/1.1/DTD/svg11.dtd">
<svg version="1.1" id="Calque_1" xmlns="http://www.w3.org/2000/svg" xmlns:xlink="http://www.w3.org/1999/xlink" x="0px" y="0px"
	 width="22.417px" height="10.493px" viewBox="0 0 22.417 10.493" enable-background="new 0 0 22.417 10.493" xml:space="preserve">
<polygon fill="#6F6F6F" points="0,0 8.605,4.968 0,9.936 "/>
<path fill="#6F6F6F" d="M22.415,2.874c0-0.129-0.014-0.262-0.047-0.387c-0.136-0.507-0.554-0.807-1.112-0.808
	c-1.61-0.001-3.219,0-4.829-0.001c-0.093,0-0.189-0.002-0.28-0.019c-0.506-0.093-0.898-0.363-1.217-0.763
	c-0.44-0.553-1.023-0.86-1.729-0.876c-0.376-0.009-0.752-0.012-1.128-0.012c-0.502,0-1.003,0.005-1.505,0.012
	c-0.172,0.002-0.357,0.042-0.512,0.115C9.61,0.346,9.438,0.732,9.438,1.208c0,2.702-0.001,5.404,0.002,8.105
	c0,0.124,0.013,0.252,0.045,0.371c0.135,0.505,0.549,0.809,1.094,0.809c0.793,0.001,1.586,0.001,2.378,0.001c0.99,0,1.979,0,2.968,0
	c1.023,0,2.045,0,3.068,0c0.744,0,1.488,0,2.232,0c0.738,0,1.192-0.452,1.193-1.191C22.417,7.159,22.417,5.016,22.415,2.874z"/>
</svg>
