<?xml version="1.0" encoding="utf-8"?>
<!-- Generator: Adobe Illustrator 17.0.0, SVG Export Plug-In . SVG Version: 6.00 Build 0)  -->
<!DOCTYPE svg PUBLIC "-//W3C//DTD SVG 1.1//EN" "http://www.w3.org/Graphics/SVG/1.1/DTD/svg11.dtd">
<svg version="1.1" id="Calque_1" xmlns="http://www.w3.org/2000/svg" xmlns:xlink="http://www.w3.org/1999/xlink" x="0px" y="0px"
	 width="452.667px" height="300px" viewBox="0 0 452.667 300" enable-background="new 0 0 452.667 300" xml:space="preserve">
<g>
	<g>
		<rect x="304.5" y="110.667" fill="#FFFFFF" width="3.667" height="117.667"/>
		<rect x="270.833" y="110.667" fill="#FFFFFF" width="71" height="3.667"/>
		<rect x="144.5" y="110.667" fill="#FFFFFF" width="3.667" height="117.667"/>
		<rect x="110.833" y="110.667" fill="#FFFFFF" width="71" height="3.667"/>
	</g>
	<rect x="171.333" y="225.333" fill="#FFFFFF" width="110" height="3"/>
</g>
<g>
	<polygon fill="#FFFFFF" points="431.333,264 431.333,256.667 21.333,256.667 21.333,264 0,264 0,292.667 21.333,292.667 
		21.333,300 431.333,300 431.333,292.667 452.667,292.667 452.667,264 	"/>
	<polygon fill="#FFFFFF" points="44,22.667 408.667,22.667 408.667,250 431.333,250 431.333,18 408.667,18 408.667,0 44,0 44,18 
		21.333,18 21.333,250 44,250 	"/>
</g>
</svg>
