<?xml version="1.0" encoding="utf-8"?>
<!-- Generator: Adobe Illustrator 17.0.0, SVG Export Plug-In . SVG Version: 6.00 Build 0)  -->
<!DOCTYPE svg PUBLIC "-//W3C//DTD SVG 1.1//EN" "http://www.w3.org/Graphics/SVG/1.1/DTD/svg11.dtd">
<svg version="1.1" id="Calque_1" xmlns="http://www.w3.org/2000/svg" xmlns:xlink="http://www.w3.org/1999/xlink" x="0px" y="0px"
	 width="103.068px" height="102.118px" viewBox="0 0 103.068 102.118" enable-background="new 0 0 103.068 102.118"
	 xml:space="preserve">
<g>
	<path fill="#484848" d="M67.06,99.042c-1.719-1.588-3.192-3.832-4.422-6.729c-1.23-2.896-2.23-6.703-2.999-11.42L57.1,67.127
		c-0.564-3.486-0.949-6.46-1.153-8.921c-0.206-2.461-0.308-4.665-0.308-6.614c-0.719,2.051-1.526,4.191-2.422,6.421
		c-0.898,2.23-1.936,4.653-3.115,7.268L35.49,98.427c-0.149,0.331-0.338,0.64-0.545,0.938c5.216,1.776,10.801,2.753,16.618,2.753
		c5.626,0,11.036-0.913,16.104-2.579C67.466,99.372,67.255,99.222,67.06,99.042z"/>
	<path fill="#484848" d="M63.253,4.681l15.381,76.211c0.461,2.513,1.281,4.372,2.461,5.576c1.124,1.149,3.003,1.743,5.619,1.797
		c10.094-9.413,16.413-22.82,16.413-37.711C103.127,25.561,85.343,4.726,61.74,0C62.36,1.385,62.873,2.931,63.253,4.681z"/>
	<path fill="#484848" d="M18.148,89.81l30.57-58.597L45.18,12.141c-0.308-1.486-0.68-2.73-1.115-3.729
		c-0.436-1-1.026-1.808-1.769-2.423c-0.744-0.615-1.667-1.05-2.769-1.307c-1.103-0.256-2.474-0.385-4.114-0.385h-4.999l0.103-0.813
		C12.535,11.537,0,29.576,0,50.554C0,66.28,7.048,80.352,18.148,89.81z"/>
</g>
</svg>
