<?xml version="1.0" encoding="utf-8"?>
<!-- Generator: Adobe Illustrator 17.0.0, SVG Export Plug-In . SVG Version: 6.00 Build 0)  -->
<!DOCTYPE svg PUBLIC "-//W3C//DTD SVG 1.1//EN" "http://www.w3.org/Graphics/SVG/1.1/DTD/svg11.dtd">
<svg version="1.1" id="Calque_1" xmlns="http://www.w3.org/2000/svg" xmlns:xlink="http://www.w3.org/1999/xlink" x="0px" y="0px"
	 width="40px" height="40px" viewBox="0 0 40 40" enable-background="new 0 0 40 40" xml:space="preserve">
<g>
	<path fill="#FFFFFF" d="M9.226,39.5c-0.193,0-0.351-0.157-0.351-0.351V8.64c0-0.193,0.157-0.351,0.351-0.351h21.549
		c0.193,0,0.351,0.157,0.351,0.351v30.51c0,0.193-0.157,0.351-0.351,0.351H9.226z"/>
	<path fill="#DEDEDE" d="M30.625,8.789V39H9.375V8.789H30.625 M30.775,7.789H9.225c-0.47,0-0.85,0.381-0.85,0.85v30.51
		c0,0.47,0.381,0.85,0.85,0.85h21.549c0.47,0,0.85-0.381,0.85-0.85V8.639C31.625,8.17,31.244,7.789,30.775,7.789L30.775,7.789z"/>
</g>
<path fill="#395A8B" d="M8.375,39.15c0,0.47,0.381,0.85,0.85,0.85h21.549c0.47,0,0.85-0.381,0.85-0.85v-4.233H8.375V39.15z"/>
<polyline fill="none" stroke="#AFAFAF" stroke-miterlimit="10" points="26.812,7.789 26.812,12.75 31.625,12.75 "/>
<line fill="none" stroke="#9E9E9E" stroke-linecap="round" stroke-miterlimit="10" x1="11.625" y1="30.688" x2="28" y2="30.688"/>
<line fill="none" stroke="#9E9E9E" stroke-linecap="round" stroke-miterlimit="10" x1="11.625" y1="28.438" x2="28" y2="28.438"/>
<line fill="none" stroke="#9E9E9E" stroke-linecap="round" stroke-miterlimit="10" x1="11.625" y1="26.313" x2="28" y2="26.313"/>
<line fill="none" stroke="#9E9E9E" stroke-linecap="round" stroke-miterlimit="10" x1="11.625" y1="24.25" x2="28" y2="24.25"/>
<line fill="none" stroke="#9E9E9E" stroke-linecap="round" stroke-miterlimit="10" x1="11.625" y1="22.125" x2="28" y2="22.125"/>
<line fill="none" stroke="#9E9E9E" stroke-linecap="round" stroke-miterlimit="10" x1="11.625" y1="20" x2="28" y2="20"/>
<line fill="none" stroke="#9E9E9E" stroke-linecap="round" stroke-miterlimit="10" x1="11.859" y1="17.891" x2="28.234" y2="17.891"/>
<line fill="none" stroke="#9E9E9E" stroke-linecap="round" stroke-miterlimit="10" x1="11.859" y1="15.25" x2="28.234" y2="15.25"/>
</svg>
