<?xml version="1.0" encoding="utf-8"?>
<!-- Generator: Adobe Illustrator 17.0.0, SVG Export Plug-In . SVG Version: 6.00 Build 0)  -->
<!DOCTYPE svg PUBLIC "-//W3C//DTD SVG 1.1//EN" "http://www.w3.org/Graphics/SVG/1.1/DTD/svg11.dtd">
<svg version="1.1" id="Calque_1" xmlns="http://www.w3.org/2000/svg" xmlns:xlink="http://www.w3.org/1999/xlink" x="0px" y="0px"
	 width="40px" height="40px" viewBox="0 0 40 40" enable-background="new 0 0 40 40" xml:space="preserve">
<g>
	<path fill="#FFFFFF" d="M9.226,39.5c-0.193,0-0.351-0.157-0.351-0.351V8.64c0-0.193,0.157-0.351,0.351-0.351h21.549
		c0.193,0,0.351,0.157,0.351,0.351v30.51c0,0.193-0.157,0.351-0.351,0.351H9.226z"/>
	<path fill="#DEDEDE" d="M30.625,8.789V39H9.375V8.789H30.625 M30.775,7.789H9.225c-0.47,0-0.85,0.381-0.85,0.85v30.51
		c0,0.47,0.381,0.85,0.85,0.85h21.549c0.47,0,0.85-0.381,0.85-0.85V8.639C31.625,8.17,31.244,7.789,30.775,7.789L30.775,7.789z"/>
</g>
<path fill="#B04343" d="M8.375,39.15c0,0.47,0.381,0.85,0.85,0.85h21.549c0.47,0,0.85-0.381,0.85-0.85v-4.233H8.375V39.15z"/>
<rect x="11.612" y="20" fill="#B04343" width="16.776" height="7.789"/>
<g>
	<path fill="#FFFFFF" d="M13.56,21.387c0.358-0.061,0.862-0.107,1.57-0.107c0.717,0,1.227,0.137,1.57,0.412
		c0.328,0.259,0.549,0.686,0.549,1.189c0,0.503-0.168,0.93-0.473,1.22c-0.396,0.374-0.983,0.541-1.669,0.541
		c-0.152,0-0.29-0.007-0.396-0.023v1.837H13.56V21.387z M14.711,23.719c0.099,0.023,0.221,0.03,0.389,0.03
		c0.617,0,0.998-0.313,0.998-0.839c0-0.472-0.328-0.754-0.907-0.754c-0.236,0-0.397,0.023-0.48,0.046V23.719z"/>
	<path fill="#FFFFFF" d="M17.991,21.387c0.427-0.069,0.984-0.107,1.57-0.107c0.976,0,1.609,0.175,2.104,0.549
		c0.534,0.396,0.869,1.029,0.869,1.936c0,0.984-0.358,1.662-0.854,2.081c-0.541,0.45-1.364,0.663-2.371,0.663
		c-0.602,0-1.029-0.038-1.319-0.076V21.387z M19.157,25.579c0.099,0.023,0.259,0.023,0.404,0.023
		c1.052,0.008,1.738-0.572,1.738-1.799c0.008-1.067-0.617-1.631-1.616-1.631c-0.259,0-0.427,0.023-0.526,0.046V25.579z"/>
	<path fill="#FFFFFF" d="M23.3,21.318h3.141v0.953h-1.974v1.174h1.845v0.945h-1.845v2.066H23.3V21.318z"/>
</g>
<polyline fill="none" stroke="#AFAFAF" stroke-miterlimit="10" points="26.812,7.789 26.812,12.75 31.625,12.75 "/>
</svg>
