<?xml version="1.0" encoding="utf-8"?>
<!-- Generator: Adobe Illustrator 17.0.0, SVG Export Plug-In . SVG Version: 6.00 Build 0)  -->
<!DOCTYPE svg PUBLIC "-//W3C//DTD SVG 1.1//EN" "http://www.w3.org/Graphics/SVG/1.1/DTD/svg11.dtd">
<svg version="1.1" id="Calque_1" xmlns="http://www.w3.org/2000/svg" xmlns:xlink="http://www.w3.org/1999/xlink" x="0px" y="0px"
	 width="40px" height="40px" viewBox="0 0 40 40" enable-background="new 0 0 40 40" xml:space="preserve">
<g>
	<path fill="#FFF0B9" d="M3.566,39.715c-1.551-0.001-2.705-0.852-3.086-2.274c-0.085-0.317-0.128-0.677-0.128-1.067
		c-0.008-8.301-0.007-16.601-0.006-24.901c0-1.492,0.568-2.485,1.736-3.037c0.424-0.2,0.955-0.319,1.456-0.326
		C5.076,8.09,6.616,8.073,8.155,8.073c1.155,0,2.309,0.01,3.463,0.036c2.054,0.046,3.769,0.916,5.097,2.584
		c1.083,1.361,2.361,2.161,3.908,2.446c0.31,0.057,0.62,0.062,0.912,0.062l14.836,0.003c1.585,0,2.76,0.85,3.143,2.271
		c0.089,0.333,0.135,0.708,0.135,1.114c0.009,6.583,0.008,13.166,0.006,19.749c-0.001,2.114-1.266,3.377-3.382,3.377h-25.66
		L3.566,39.715z"/>
	<path fill="#C3B789" d="M8.156,8.356c1.259,0,2.39,0.012,3.456,0.036c1.967,0.045,3.609,0.878,4.882,2.478
		c1.128,1.417,2.462,2.251,4.079,2.548c0.332,0.061,0.658,0.066,0.963,0.067l7.472,0.002l7.364,0.002
		c1.471,0.001,2.516,0.752,2.869,2.061c0.083,0.308,0.125,0.658,0.125,1.041c0.009,6.583,0.008,13.165,0.005,19.748
		c-0.001,1.966-1.13,3.094-3.097,3.094l-6.856,0l-4.937,0l-4.488,0h-0.077l-4.521,0l-4.521,0l-7.306-0.002
		c-1.415-0.001-2.467-0.773-2.813-2.065c-0.079-0.294-0.119-0.628-0.119-0.994c-0.008-8.3-0.007-16.6-0.006-24.901
		c0-1.371,0.515-2.281,1.573-2.781C2.591,8.508,3.078,8.399,3.54,8.393C5.078,8.373,6.617,8.356,8.156,8.356 M8.156,7.789
		c-1.541,0-3.083,0.017-4.623,0.037C3.004,7.833,2.436,7.954,1.96,8.179c-1.368,0.646-1.898,1.832-1.898,3.293
		c-0.001,8.3-0.002,16.601,0.006,24.901c0,0.381,0.04,0.773,0.138,1.14c0.415,1.55,1.687,2.484,3.36,2.485
		C6.002,40,8.437,40,10.872,40c3.04,0,6.08-0.001,9.119-0.001c3.142,0,6.283,0,9.425,0c2.285,0,4.571,0,6.856,0
		c2.267,0,3.663-1.39,3.664-3.66c0.003-6.583,0.003-13.166-0.005-19.749c-0.001-0.397-0.042-0.806-0.145-1.188
		c-0.419-1.557-1.701-2.48-3.416-2.481c-4.945-0.003-9.891,0-14.836-0.003c-0.287,0-0.58-0.006-0.861-0.057
		c-1.554-0.286-2.759-1.114-3.738-2.344c-1.352-1.7-3.142-2.642-5.312-2.691C10.468,7.799,9.312,7.789,8.156,7.789L8.156,7.789z"/>
</g>
<path fill="#786E4F" d="M0.068,36.373c0,0.381,0.04,0.773,0.138,1.14c0.415,1.55,1.687,2.484,3.36,2.485
	c5.475,0.003,10.95,0.001,16.426,0.001c5.427,0,10.854,0,16.281,0c2.267,0,3.663-1.39,3.664-3.66c0-0.474-0.001-0.948,0-1.422H0.068
	C0.068,35.402,0.067,35.888,0.068,36.373z"/>
</svg>
