<?xml version="1.0" encoding="utf-8"?>
<!-- Generator: Adobe Illustrator 17.0.0, SVG Export Plug-In . SVG Version: 6.00 Build 0)  -->
<!DOCTYPE svg PUBLIC "-//W3C//DTD SVG 1.1//EN" "http://www.w3.org/Graphics/SVG/1.1/DTD/svg11.dtd">
<svg version="1.1" id="Calque_1" xmlns="http://www.w3.org/2000/svg" xmlns:xlink="http://www.w3.org/1999/xlink" x="0px" y="0px"
	 width="158px" height="22.617px" viewBox="0 0 158 22.617" enable-background="new 0 0 158 22.617" xml:space="preserve">
<g>
	<path fill="#FFFFFF" d="M7.666,11.338l0.07,0.599c0.009,1.347-0.348,2.934-1.073,4.764c-0.817,2.089-1.783,3.571-2.897,4.443
		c-0.632,0.501-1.282,0.757-1.95,0.766c-0.353,0-0.674-0.081-0.961-0.244c-0.288-0.162-0.432-0.406-0.432-0.731
		c0.418-0.436,0.627-1.555,0.627-3.357c0-1.059-0.089-2.633-0.265-4.722C0.608,10.766,0.52,9.202,0.52,8.162l0.084-3.12
		c0-0.501-0.105-1.177-0.314-2.027s-0.313-1.451-0.313-1.804c0-0.659,0.729-0.989,2.187-0.989h0.432
		c1.941,0,3.348,1.086,4.221,3.259C7.429,4.995,7.735,7.084,7.735,9.75v1.323C7.688,11.156,7.666,11.245,7.666,11.338z
		 M2.414,17.522v2.73c0.715-0.464,1.337-1.112,1.867-1.943c0.529-0.831,0.933-1.739,1.212-2.723c0.52-1.885,0.78-3.766,0.78-5.641
		c0-2.154-0.27-3.854-0.808-5.098C4.916,3.565,4.239,2.72,3.431,2.311C2.93,2.051,2.363,1.926,1.732,1.935v0.028
		c0,1.718,0.113,4.304,0.341,7.759S2.414,15.776,2.414,17.522z"/>
	<path fill="#FFFFFF" d="M15.408,12.354l0.139,6.059v0.85l-0.014,0.794h0.376l0.822-0.028c0.78,0,1.17,0.237,1.17,0.71
		c0,0.242-0.096,0.448-0.286,0.62c-0.19,0.172-0.41,0.258-0.661,0.258H15.7c-0.864,0-1.416-0.019-1.658-0.056
		c-0.149,0.019-0.265,0.028-0.348,0.028c-0.678,0-1.017-0.214-1.017-0.641c0-0.176,0.056-0.343,0.167-0.501
		c0.111-0.158,0.223-0.241,0.334-0.251h0.808l0.056-0.376l-0.195-6.059l0.153-6.352c0-1.086-0.047-2.108-0.139-3.064h-0.543
		l-0.655,0.028c-0.279,0-0.497-0.053-0.655-0.16c-0.158-0.107-0.237-0.309-0.237-0.606c0-0.436,0.468-0.655,1.407-0.655h3.399
		c0.771,0,1.156,0.2,1.156,0.599c0,0.176-0.084,0.339-0.251,0.488c-0.167,0.149-0.358,0.223-0.571,0.223h-1.463
		c0.074,0.78,0.111,1.662,0.111,2.647L15.408,12.354z"/>
	<path fill="#FFFFFF" d="M22.23,20.642l1.184,0.209c0.362,0,0.677-0.158,0.947-0.474c0.269-0.316,0.468-0.71,0.599-1.184
		c0.251-0.91,0.376-1.715,0.376-2.417c0-0.701-0.117-1.395-0.348-2.082c-0.232-0.687-0.518-1.325-0.857-1.915
		c-0.339-0.59-0.675-1.191-1.009-1.804c-0.799-1.449-1.198-2.869-1.198-4.262c0-0.854,0.144-1.611,0.432-2.271
		c0.538-1.226,1.254-1.839,2.145-1.839c0.334,0,0.652,0.107,0.954,0.32c0.302,0.214,0.453,0.446,0.453,0.696
		c0,0.437-0.232,0.655-0.696,0.655c-0.204,0-0.404-0.056-0.599-0.167c-0.604,0.028-1.012,0.701-1.226,2.02
		c-0.047,0.288-0.07,0.625-0.07,1.01c0,0.385,0.084,0.862,0.251,1.428c0.167,0.566,0.378,1.07,0.633,1.511
		c0.255,0.441,0.529,0.929,0.822,1.463c0.293,0.534,0.569,1.052,0.829,1.553c0.594,1.161,0.886,2.489,0.878,3.984
		c0.009,1.152-0.256,2.252-0.794,3.301c-0.26,0.52-0.63,0.945-1.108,1.275c-0.478,0.329-1.023,0.499-1.636,0.508v0.07
		c-0.78-0.111-1.207-0.478-1.282-1.1L22.23,20.642z"/>
	<path fill="#FFFFFF" d="M31.449,9.513l0.042-2.716c0-1.161-0.075-2.043-0.223-2.647c0.13-0.669,0.385-1.003,0.766-1.003h1.254
		c1.095,0,1.867,0.455,2.312,1.365c0.39,0.808,0.585,1.737,0.585,2.786c0,1.328-0.033,2.143-0.098,2.445
		c-0.065,0.302-0.135,0.587-0.209,0.857c-0.075,0.27-0.165,0.488-0.272,0.655s-0.243,0.351-0.41,0.55
		c-0.167,0.2-0.358,0.369-0.571,0.508c-0.474,0.306-1.045,0.566-1.713,0.78v3.051l0.223,5.405c0,0.232-0.098,0.429-0.293,0.592
		c-0.195,0.162-0.418,0.244-0.669,0.244l-0.599-0.348c-0.232-1.049-0.348-2.447-0.348-4.193l0.111-5.084
		c-0.111-0.251-0.167-0.483-0.167-0.696v-0.098C31.356,11.593,31.449,10.776,31.449,9.513z M32.87,6.309l0.056,5.558v0.042
		c1.133-0.148,1.699-1.755,1.699-4.82c0-0.901-0.111-1.513-0.334-1.839c-0.242-0.343-0.613-0.515-1.114-0.515
		c0-0.028-0.103-0.042-0.306-0.042V6.309z"/>
	<path fill="#FFFFFF" d="M47.075,16.046l0.306,1.755c0,0.232,0.09,0.799,0.271,1.699c0.181,0.901,0.272,1.49,0.272,1.769v0.028
		c0,0.418-0.158,0.687-0.474,0.808c-0.399,0-0.71-0.065-0.933-0.195c-0.223-0.13-0.334-0.381-0.334-0.752
		c0-0.808-0.139-1.983-0.418-3.524l-2.814-0.418c-0.176,0.632-0.312,1.323-0.404,2.075c-0.093,0.752-0.181,1.3-0.265,1.644
		c-0.167,0.706-0.479,1.059-0.933,1.059c-0.223,0-0.43-0.072-0.62-0.216c-0.19-0.144-0.285-0.327-0.285-0.55l0.07-0.251
		c1.282-4.95,2.233-9.769,2.856-14.459c0.019-0.13,0.046-0.511,0.084-1.142c0.092-1.393,0.269-2.28,0.529-2.661h0.961
		c0.26,0,0.488,0.061,0.683,0.181c0.195,0.121,0.293,0.302,0.293,0.543c0,1.449,0.192,3.599,0.578,6.449
		C46.882,12.74,47.075,14.792,47.075,16.046z M45.584,16.617c-0.056-0.279-0.084-0.764-0.084-1.456c0-0.692-0.04-1.551-0.119-2.577
		c-0.079-1.026-0.193-2.219-0.341-3.58c-0.149-1.36-0.251-2.347-0.306-2.96c-0.864,4.783-1.421,8.154-1.672,10.113
		C43.388,16.371,44.228,16.524,45.584,16.617z"/>
	<path fill="#FFFFFF" d="M53.675,12.285l-0.028,3.092c0,2.517,0.181,4.499,0.543,5.948l-0.32,0.766h-0.794L52.7,21.673
		c0.019-0.854,0.028-1.813,0.028-2.876c0-1.063-0.082-3.336-0.244-6.818s-0.243-6.082-0.243-7.8c0-0.901,0.315-1.351,0.947-1.351
		c0.994,0,1.829,0.26,2.507,0.78c0.677,0.52,1.017,1.263,1.017,2.229v2.006c0,0.548-0.103,1.047-0.306,1.497
		c-0.204,0.451-0.441,0.924-0.71,1.421c-0.27,0.497-0.418,0.773-0.446,0.829c0.102,0.465,0.283,1.374,0.543,2.73
		c0.557,2.962,1.175,5.094,1.853,6.394c0.195,0.371,0.293,0.662,0.293,0.871s-0.059,0.385-0.175,0.529
		c-0.116,0.144-0.271,0.216-0.466,0.216c-0.399,0-0.783-0.458-1.15-1.372c-0.367-0.914-0.661-1.929-0.884-3.044
		c-0.678-3.408-1.092-5.284-1.24-5.627H53.675z M53.786,3.885l-0.098,0.404c0,0.78,0.019,1.906,0.056,3.378
		c0.037,1.472,0.056,2.542,0.056,3.211c0.446-0.232,0.805-0.838,1.079-1.818c0.274-0.98,0.411-1.729,0.411-2.25
		c0-0.52-0.014-0.903-0.042-1.149c-0.028-0.246-0.089-0.517-0.181-0.815C54.881,4.233,54.455,3.913,53.786,3.885z"/>
	<path fill="#FFFFFF" d="M65.219,12.354l0.139,6.059v0.85l-0.014,0.794h0.376l0.822-0.028c0.78,0,1.17,0.237,1.17,0.71
		c0,0.242-0.096,0.448-0.286,0.62c-0.19,0.172-0.41,0.258-0.661,0.258h-1.254c-0.864,0-1.416-0.019-1.658-0.056
		c-0.149,0.019-0.265,0.028-0.348,0.028c-0.678,0-1.017-0.214-1.017-0.641c0-0.176,0.056-0.343,0.167-0.501
		c0.111-0.158,0.223-0.241,0.334-0.251h0.808l0.056-0.376l-0.195-6.059l0.153-6.352c0-1.086-0.047-2.108-0.139-3.064H63.13
		l-0.655,0.028c-0.279,0-0.497-0.053-0.655-0.16c-0.158-0.107-0.237-0.309-0.237-0.606c0-0.436,0.468-0.655,1.407-0.655h3.399
		c0.771,0,1.156,0.2,1.156,0.599c0,0.176-0.084,0.339-0.251,0.488c-0.167,0.149-0.358,0.223-0.571,0.223h-1.463
		c0.074,0.78,0.111,1.662,0.111,2.647L65.219,12.354z"/>
	<path fill="#FFFFFF" d="M74.619,21.381l-0.056-2.187c0-0.009,0.014-0.334,0.042-0.975c-0.075-0.241-0.226-2.387-0.453-6.435
		c-0.228-4.049-0.35-6.524-0.369-7.424c-0.037,0-0.075,0-0.111,0c-1.542-0.028-2.312-0.311-2.312-0.85
		c0-0.176,0.102-0.322,0.306-0.439c0.204-0.116,0.404-0.174,0.599-0.174l3.872,0.265l0.46-0.014c0.594,0,0.891,0.228,0.891,0.683
		c0,0.232-0.098,0.42-0.293,0.564c-0.195,0.144-0.413,0.216-0.655,0.216l-1.309-0.195l-0.056,0.293c0,1.802,0.158,4.499,0.474,8.093
		c0.315,3.594,0.474,6.296,0.474,8.107c0,0.223-0.103,0.42-0.306,0.592c-0.204,0.172-0.427,0.258-0.669,0.258L74.619,21.381z"/>
	<path fill="#FFFFFF" d="M84.743,12.354l0.139,6.059v0.85l-0.014,0.794h0.376l0.822-0.028c0.78,0,1.17,0.237,1.17,0.71
		c0,0.242-0.096,0.448-0.286,0.62c-0.19,0.172-0.41,0.258-0.661,0.258h-1.254c-0.864,0-1.416-0.019-1.658-0.056
		c-0.149,0.019-0.265,0.028-0.348,0.028c-0.678,0-1.017-0.214-1.017-0.641c0-0.176,0.056-0.343,0.167-0.501
		c0.111-0.158,0.223-0.241,0.334-0.251h0.808l0.056-0.376l-0.195-6.059l0.153-6.352c0-1.086-0.047-2.108-0.139-3.064h-0.543
		l-0.655,0.028c-0.279,0-0.497-0.053-0.655-0.16c-0.158-0.107-0.237-0.309-0.237-0.606c0-0.436,0.468-0.655,1.407-0.655h3.399
		c0.771,0,1.156,0.2,1.156,0.599c0,0.176-0.084,0.339-0.251,0.488c-0.167,0.149-0.358,0.223-0.571,0.223h-1.463
		c0.074,0.78,0.111,1.662,0.111,2.647L84.743,12.354z"/>
	<path fill="#FFFFFF" d="M91.273,13.12l0.028-1.086c0-0.093-0.014-0.139-0.042-0.139v-0.515c0-2.99,0.172-5.117,0.515-6.38
		c0.287-1.068,0.566-1.727,0.836-1.978c0.269-0.251,0.534-0.376,0.794-0.376c2.21,0,3.733,1.114,4.569,3.343
		c0.482,1.282,0.724,2.86,0.724,4.736v0.209l0.056,3.232c0,5.47-1.268,8.204-3.803,8.204c-1.05,0-1.853-0.58-2.41-1.741
		c-0.529-1.114-0.855-2.21-0.975-3.287C91.37,15.716,91.273,14.309,91.273,13.12z M92.958,9.22l-0.139,2.633
		c0,2.758,0.223,5.163,0.669,7.215c0.474,1.198,0.924,1.904,1.351,2.117c0.343,0,0.655-0.139,0.933-0.418s0.499-0.652,0.661-1.121
		c0.163-0.469,0.3-0.963,0.411-1.483c0.102-0.511,0.181-1.059,0.237-1.644c0.092-1.012,0.139-1.876,0.139-2.591
		c0-0.715-0.063-1.811-0.189-3.287s-0.188-2.577-0.188-3.301V6.838c-0.019-0.696-0.246-1.316-0.683-1.86
		c-0.437-0.543-0.994-0.815-1.672-0.815c-0.65,0-1.082,0.367-1.295,1.1c-0.176,0.613-0.265,1.37-0.265,2.271L92.958,9.22z"/>
	<path fill="#FFFFFF" d="M103.375,10.293l0.167-5.321c0-0.882,0.348-1.583,1.045-2.103v0.181c0.074-0.046,0.144-0.07,0.209-0.07
		c0.446,0,1.003,0.768,1.672,2.305c0.669,1.537,1.272,3.225,1.811,5.063s1.074,3.694,1.608,5.565
		c0.534,1.871,0.866,2.969,0.996,3.294c0.381-3.984,0.571-8.808,0.571-14.473l-0.042-0.766c0-0.566,0.237-0.85,0.71-0.85
		c0.269,0,0.471,0.111,0.605,0.334s0.202,0.483,0.202,0.78v2.159c-0.019,2.238-0.119,5.226-0.3,8.964
		c-0.181,3.738-0.424,5.848-0.731,6.331c-0.52,0.158-0.88,0.237-1.08,0.237c-0.2,0-0.353-0.068-0.46-0.202
		c-0.107-0.134-0.192-0.341-0.257-0.62c-0.065-0.279-0.121-0.464-0.167-0.557l0.014-0.125c0-0.706-0.683-2.948-2.048-6.728
		c-1.365-3.78-2.354-6.38-2.967-7.8v14.361c0.019,0.037,0.056,0.102,0.111,0.195c0.121,0.204,0.181,0.395,0.181,0.571
		c0,0.176-0.086,0.353-0.258,0.529c-0.172,0.176-0.373,0.265-0.605,0.265c-0.622,0-0.933-0.58-0.933-1.741L103.375,10.293z"/>
</g>
<path fill="#D1C550" d="M128.989,22.617c-0.212,0-0.431-0.066-0.631-0.188l-0.047,0.047l-0.191-0.22l-0.251-0.192l0.051-0.052
	c-0.291-0.425-0.294-0.931,0.007-1.252c0.162-0.173,0.399-0.259,0.65-0.263c2.839-4.461,2.286-7.578,2.28-7.609l-0.064-0.336
	l0.319-0.123c5.472-2.083,7.851-5.355,7.875-5.388l0.202-0.283l0.311,0.154c2.528,1.252,3.795,3.742,3.848,3.848l0.157,0.313
	l-0.286,0.202c-3.011,2.128-5.415,7.805-5.439,7.862l-0.125,0.299l-0.319-0.054c-0.179-0.03-0.38-0.046-0.595-0.046
	c-2.022,0-5.158,1.37-6.903,2.287c0.038,0.276-0.035,0.54-0.214,0.731C129.466,22.524,129.24,22.617,128.989,22.617z
	 M135.663,15.357l-4.826,4.871c1.621-0.746,4.064-1.707,5.905-1.707c0.142,0,0.279,0.006,0.411,0.017
	c0.523-1.177,2.607-5.598,5.3-7.708c-0.379-0.629-1.399-2.121-3.021-3.032c-0.705,0.857-3.11,3.449-7.729,5.277
	c0.075,0.855,0.075,3.226-1.621,6.455l4.852-4.897c-0.058-0.147-0.088-0.305-0.088-0.464c0-0.701,0.57-1.271,1.271-1.271
	c0.701,0,1.271,0.57,1.271,1.271c0,0.701-0.57,1.271-1.271,1.271C135.959,15.441,135.806,15.412,135.663,15.357z M135.794,14.495
	l0.045,0.035c0.08,0.062,0.176,0.095,0.278,0.095c0.251,0,0.455-0.204,0.455-0.455c0-0.251-0.204-0.455-0.455-0.455
	c-0.251,0-0.455,0.204-0.455,0.455c0,0.13,0.053,0.225,0.098,0.281L135.794,14.495z"/>
<path fill="#D1C550" d="M153.845,0.544c-3.731,4.35-7.765,8.698-9.166,9.685c-0.435-1.831-3.176-3.688-4.329-4.399l2.953-5.286
	H153.845 M155.023,0h-12.039l-3.367,6.026c0,0,4.622,2.628,4.576,4.712c-0.003,0.157,0.055,0.229,0.166,0.229
	C145.722,10.968,155.023,0,155.023,0L155.023,0z"/>
</svg>
