<?xml version="1.0" encoding="utf-8"?>
<!-- Generator: Adobe Illustrator 17.0.0, SVG Export Plug-In . SVG Version: 6.00 Build 0)  -->
<!DOCTYPE svg PUBLIC "-//W3C//DTD SVG 1.1//EN" "http://www.w3.org/Graphics/SVG/1.1/DTD/svg11.dtd">
<svg version="1.1" id="Calque_2" xmlns="http://www.w3.org/2000/svg" xmlns:xlink="http://www.w3.org/1999/xlink" x="0px" y="0px"
	 width="298.642px" height="92.082px" viewBox="250.029 -2.291 298.642 92.082"
	 enable-background="new 250.029 -2.291 298.642 92.082" xml:space="preserve">
<linearGradient id="SVGID_1_" gradientUnits="userSpaceOnUse" x1="985.9109" y1="1088.7979" x2="985.9109" y2="1111.1477" gradientTransform="matrix(1 0 0 1 -464.52 -1091.8)">
	<stop  offset="0" style="stop-color:#9DCD64"/>
	<stop  offset="1" style="stop-color:#4CB748"/>
</linearGradient>
<path fill="url(#SVGID_1_)" d="M516.241,17.209h4.1l1.8-14.4c0-0.2,0-0.4,0.1-0.6c0-0.2,0.1-0.4,0.1-0.7l-3.7,3.2
	c-0.1,0.1-0.3,0.2-0.4,0.2s-0.3,0-0.4,0c-0.1,0-0.2-0.1-0.3-0.1c-0.1-0.1-0.2-0.1-0.2-0.2l-0.7-1.2l6.6-5.5h2.2l-2.4,19.3h3.8
	l-0.3,2.1h-10.6L516.241,17.209z"/>
<linearGradient id="SVGID_2_" gradientUnits="userSpaceOnUse" x1="1005.961" y1="1088.7979" x2="1005.961" y2="1111.1477" gradientTransform="matrix(1 0 0 1 -464.52 -1091.8)">
	<stop  offset="0" style="stop-color:#9DCD64"/>
	<stop  offset="1" style="stop-color:#4CB748"/>
</linearGradient>
<path fill="url(#SVGID_2_)" d="M548.741,6.309c0,2.2-0.2,4.2-0.7,5.8c-0.5,1.7-1.1,3-1.9,4.1c-0.8,1.1-1.7,1.9-2.8,2.4
	s-2.2,0.8-3.3,0.8c-0.9,0-1.7-0.2-2.4-0.5c-0.7-0.4-1.4-0.9-1.9-1.6s-0.9-1.6-1.2-2.7c-0.3-1.1-0.4-2.3-0.4-3.7
	c0-2.2,0.2-4.2,0.7-5.8s1.1-3,1.9-4.1c0.8-1.1,1.7-1.9,2.8-2.5c1-0.5,2.2-0.8,3.3-0.8c0.9,0,1.7,0.2,2.4,0.5
	c0.7,0.4,1.4,0.9,1.9,1.6s1,1.6,1.2,2.7C548.541,3.609,548.741,4.909,548.741,6.309z M545.941,6.109c0-1.1-0.1-2.1-0.3-2.8
	s-0.4-1.4-0.8-1.9c-0.3-0.5-0.7-0.8-1.1-1.1c-0.4-0.2-0.9-0.3-1.4-0.3c-0.7,0-1.4,0.2-2.1,0.6c-0.7,0.4-1.3,1-1.8,1.9
	s-0.9,2-1.3,3.4c-0.3,1.4-0.5,3.1-0.5,5.2c0,1.1,0.1,2,0.3,2.8c0.2,0.8,0.4,1.4,0.7,1.9c0.3,0.5,0.7,0.8,1.1,1.1
	c0.4,0.2,0.9,0.3,1.3,0.3c0.7,0,1.4-0.2,2.1-0.6c0.7-0.4,1.3-1,1.8-1.9s0.9-2,1.3-3.4C545.741,9.909,545.941,8.209,545.941,6.109z"
	/>
<g>
	<path fill="#FFFFFF" d="M269.265,73.749h30.853l-1.756,14.216h-48.333L260.857,0.19h17.482L269.265,73.749z"/>
	<path fill="#FFFFFF" d="M339.558,25.597l-7.44,62.368h-16.454l7.44-62.368H339.558z M343.188,7.872
		c0,1.412-0.293,2.722-0.878,3.932s-1.352,2.279-2.298,3.206c-0.948,0.928-2.037,1.654-3.268,2.178
		c-1.23,0.524-2.49,0.787-3.78,0.787c-1.291,0-2.531-0.262-3.721-0.787c-1.189-0.523-2.238-1.25-3.146-2.178
		c-0.907-0.927-1.633-1.996-2.178-3.206c-0.544-1.21-0.816-2.52-0.816-3.932c0-1.371,0.281-2.671,0.847-3.902
		c0.564-1.229,1.301-2.308,2.208-3.236c0.907-0.927,1.956-1.664,3.146-2.208s2.43-0.817,3.721-0.817c1.331,0,2.61,0.263,3.841,0.787
		c1.23,0.524,2.309,1.25,3.236,2.178c0.928,0.928,1.674,2.007,2.238,3.236C342.905,5.141,343.188,6.461,343.188,7.872z"/>
	<path fill="#FFFFFF" d="M354.621,87.965l7.501-62.429h8.53c1.733,0,3.085,0.423,4.053,1.27c0.968,0.847,1.452,2.199,1.452,4.053
		l-0.182,6.594c3.104-4.355,6.503-7.582,10.192-9.679c3.69-2.097,7.532-3.146,11.524-3.146c2.58,0,4.92,0.525,7.018,1.573
		c2.096,1.049,3.841,2.581,5.232,4.597c1.392,2.017,2.368,4.498,2.934,7.441c0.564,2.944,0.605,6.312,0.121,10.102l-4.719,39.623
		h-16.636l4.658-39.623c0.484-3.75,0.303-6.402-0.544-7.955c-0.848-1.552-2.34-2.329-4.477-2.329c-1.533,0-3.106,0.454-4.719,1.361
		c-1.613,0.908-3.166,2.188-4.658,3.841c-1.492,1.654-2.863,3.65-4.113,5.989c-1.25,2.339-2.259,4.94-3.024,7.803l-3.448,30.912
		H354.621z"/>
	<linearGradient id="SVGID_3_" gradientUnits="userSpaceOnUse" x1="458.8489" y1="24.2533" x2="458.8489" y2="91.2477">
		<stop  offset="0" style="stop-color:#4373B9"/>
		<stop  offset="1" style="stop-color:#97D9E9"/>
	</linearGradient>
	<path fill="url(#SVGID_3_)" d="M454.433,88.872c-3.469,0-6.695-0.575-9.679-1.724c-2.985-1.149-5.565-2.833-7.743-5.051
		c-2.178-2.218-3.883-4.96-5.112-8.227c-1.23-3.267-1.845-6.997-1.845-11.191c0-5.444,0.887-10.496,2.661-15.153
		c1.774-4.658,4.175-8.681,7.199-12.068s6.553-6.039,10.586-7.955c4.032-1.915,8.288-2.874,12.765-2.874
		c3.468,0,6.685,0.575,9.648,1.724s5.535,2.843,7.713,5.082s3.892,4.991,5.142,8.257s1.875,6.998,1.875,11.191
		c0,5.404-0.887,10.425-2.661,15.063c-1.775,4.638-4.185,8.65-7.229,12.038s-6.573,6.049-10.586,7.985
		C463.153,87.905,458.91,88.872,454.433,88.872z M455.885,76.35c2.339,0,4.437-0.685,6.292-2.057
		c1.854-1.371,3.427-3.216,4.718-5.535c1.291-2.318,2.289-5.011,2.995-8.076c0.705-3.064,1.059-6.311,1.059-9.74
		c0-4.839-0.747-8.337-2.238-10.495c-1.493-2.157-3.812-3.237-6.957-3.237c-2.299,0-4.386,0.676-6.261,2.027
		c-1.876,1.352-3.459,3.176-4.749,5.475c-1.291,2.299-2.289,4.991-2.994,8.076c-0.706,3.085-1.059,6.342-1.059,9.77
		c0,4.759,0.745,8.248,2.238,10.465C450.42,75.242,452.739,76.35,455.885,76.35z"/>
	<linearGradient id="SVGID_4_" gradientUnits="userSpaceOnUse" x1="523.7874" y1="24.2533" x2="523.7874" y2="91.2477">
		<stop  offset="0" style="stop-color:#4373B9"/>
		<stop  offset="1" style="stop-color:#97D9E9"/>
	</linearGradient>
	<path fill="url(#SVGID_4_)" d="M544.446,37.937c-0.484,0.687-0.959,1.18-1.422,1.482c-0.464,0.303-1.039,0.454-1.724,0.454
		c-0.767,0-1.523-0.202-2.269-0.605c-0.747-0.403-1.583-0.836-2.511-1.301c-0.928-0.463-1.986-0.897-3.176-1.301
		c-1.19-0.402-2.592-0.604-4.204-0.604c-3.024,0-5.273,0.646-6.745,1.936c-1.473,1.291-2.208,2.904-2.208,4.839
		c0,1.573,0.584,2.834,1.754,3.781c1.17,0.948,2.642,1.795,4.416,2.541c1.774,0.747,3.69,1.503,5.747,2.269
		c2.057,0.766,3.972,1.754,5.747,2.964c1.774,1.21,3.246,2.763,4.416,4.658c1.169,1.896,1.754,4.315,1.754,7.259
		c0,3.065-0.604,5.969-1.814,8.711c-1.21,2.743-2.955,5.142-5.232,7.198c-2.279,2.057-5.031,3.69-8.258,4.9
		c-3.227,1.209-6.836,1.814-10.828,1.814c-1.977,0-3.901-0.192-5.777-0.575c-1.875-0.384-3.65-0.927-5.323-1.633
		c-1.674-0.705-3.187-1.521-4.537-2.45c-1.352-0.927-2.489-1.936-3.418-3.025l4.114-6.23c0.483-0.726,1.067-1.291,1.754-1.694
		c0.686-0.403,1.513-0.605,2.48-0.605c0.887,0,1.693,0.252,2.42,0.756c0.726,0.505,1.532,1.049,2.419,1.633
		c0.887,0.585,1.945,1.13,3.176,1.633c1.23,0.505,2.833,0.756,4.81,0.756c1.491,0,2.813-0.191,3.962-0.575
		c1.149-0.383,2.118-0.907,2.904-1.573s1.37-1.441,1.754-2.329c0.383-0.887,0.575-1.814,0.575-2.783
		c0-1.774-0.585-3.146-1.755-4.113s-2.631-1.815-4.386-2.541c-1.754-0.726-3.659-1.431-5.716-2.117
		c-2.058-0.685-3.963-1.612-5.717-2.783c-1.755-1.169-3.217-2.681-4.386-4.537c-1.171-1.854-1.755-4.335-1.755-7.441
		c0-2.822,0.534-5.555,1.604-8.197c1.068-2.641,2.631-4.991,4.688-7.047c2.057-2.057,4.606-3.71,7.652-4.96
		c3.044-1.25,6.563-1.875,10.556-1.875c4.073,0,7.692,0.696,10.858,2.087c3.166,1.391,5.797,3.156,7.895,5.293L544.446,37.937z"/>
</g>
</svg>
