<?xml version="1.0" encoding="utf-8"?>
<!-- Generator: Adobe Illustrator 17.0.0, SVG Export Plug-In . SVG Version: 6.00 Build 0)  -->
<!DOCTYPE svg PUBLIC "-//W3C//DTD SVG 1.1//EN" "http://www.w3.org/Graphics/SVG/1.1/DTD/svg11.dtd">
<svg version="1.1" id="Calque_1" xmlns="http://www.w3.org/2000/svg" xmlns:xlink="http://www.w3.org/1999/xlink" x="0px" y="0px"
	 width="11.125px" height="11.841px" viewBox="0 0 11.125 11.841" enable-background="new 0 0 11.125 11.841" xml:space="preserve">
<path fill="#FFFFFF" d="M10.992,11.002L6.839,6.62c0.598-0.686,0.973-1.573,0.973-2.555c0-2.157-1.749-3.906-3.906-3.906
	S0,1.908,0,4.065s1.749,3.906,3.906,3.906c0.814,0,1.569-0.25,2.195-0.676l4.156,4.385c0.099,0.107,0.232,0.161,0.367,0.161
	c0.121,0,0.243-0.044,0.339-0.133C11.167,11.521,11.18,11.205,10.992,11.002z M1,4.065c0-1.603,1.304-2.906,2.906-2.906
	s2.906,1.304,2.906,2.906c0,1.602-1.304,2.906-2.906,2.906S1,5.667,1,4.065z"/>
</svg>
