<?xml version="1.0" encoding="utf-8"?>
<!-- Generator: Adobe Illustrator 17.0.0, SVG Export Plug-In . SVG Version: 6.00 Build 0)  -->
<!DOCTYPE svg PUBLIC "-//W3C//DTD SVG 1.1//EN" "http://www.w3.org/Graphics/SVG/1.1/DTD/svg11.dtd">
<svg version="1.1" id="Calque_1" xmlns="http://www.w3.org/2000/svg" xmlns:xlink="http://www.w3.org/1999/xlink" x="0px" y="0px"
	 width="75.644px" height="42px" viewBox="0 0 75.644 42" enable-background="new 0 0 75.644 42" xml:space="preserve">
<path fill="#555555" d="M3.227,21c0-3.191,0-6.382,0-9.615c-0.137,0-0.248,0-0.36,0c-0.844,0-1.688-0.008-2.532,0.005
	C0.093,11.394-0.003,11.34,0,11.076c0.014-1.016,0.012-2.033,0.003-3.049C0,7.782,0.069,7.693,0.329,7.697
	c0.949,0.015,1.897,0.006,2.883,0.006c0.006-0.114,0.015-0.215,0.017-0.315c0.018-1.083-0.023-2.17,0.065-3.247
	c0.185-2.279,1.674-3.867,3.959-4.089c0.656-0.064,1.32-0.055,1.98-0.044c0.553,0.01,1.105,0.073,1.678,0.114
	c0.008,0.096,0.02,0.179,0.021,0.262c0.001,0.911-0.011,1.822,0.007,2.733c0.006,0.296-0.097,0.381-0.378,0.376
	C9.898,3.483,9.236,3.48,8.575,3.504C8.017,3.525,7.488,3.679,7.247,4.242C7.119,4.54,7.07,4.889,7.058,5.217
	C7.031,5.954,7.054,6.694,7.046,7.432c-0.002,0.209,0.061,0.28,0.28,0.277c1.036-0.011,2.071-0.005,3.107-0.005
	c0.102,0,0.204,0,0.317,0c-0.154,1.199-0.305,2.356-0.447,3.514c-0.023,0.19-0.147,0.168-0.27,0.168
	c-0.882,0.001-1.765,0.001-2.647,0.001c-0.094,0-0.188,0-0.31,0c-0.011,0.149-0.029,0.28-0.029,0.41
	c-0.001,2.954,0,5.907,0.003,8.861c0,0.114,0.022,0.228,0.034,0.342C5.798,21,4.512,21,3.227,21z"/>
<path d="M3.227,42c0-3.191,0-6.382,0-9.615c-0.137,0-0.248,0-0.36,0c-0.844,0-1.688-0.008-2.532,0.005
	C0.093,32.394-0.003,32.34,0,32.076c0.014-1.016,0.012-2.033,0.003-3.049C0,28.782,0.069,28.693,0.329,28.697
	c0.949,0.015,1.897,0.006,2.883,0.006c0.006-0.114,0.015-0.215,0.017-0.315c0.018-1.083-0.023-2.17,0.065-3.247
	c0.185-2.279,1.674-3.867,3.959-4.089c0.656-0.064,1.32-0.055,1.98-0.044c0.553,0.01,1.105,0.073,1.678,0.114
	c0.008,0.096,0.02,0.179,0.021,0.262c0.001,0.911-0.011,1.822,0.007,2.733c0.006,0.296-0.097,0.381-0.378,0.376
	c-0.661-0.011-1.324-0.014-1.984,0.01c-0.558,0.021-1.087,0.175-1.328,0.738c-0.128,0.298-0.177,0.647-0.189,0.975
	c-0.027,0.737-0.004,1.477-0.012,2.215c-0.002,0.209,0.061,0.28,0.28,0.277c1.036-0.011,2.071-0.005,3.107-0.005
	c0.102,0,0.204,0,0.317,0c-0.154,1.199-0.305,2.356-0.447,3.514c-0.023,0.19-0.147,0.168-0.27,0.168
	c-0.882,0.001-1.765,0.001-2.647,0.001c-0.094,0-0.188,0-0.31,0c-0.011,0.149-0.029,0.28-0.029,0.41
	c-0.001,2.954,0,5.907,0.003,8.861c0,0.114,0.022,0.228,0.034,0.342C5.798,42,4.512,42,3.227,42z"/>
<path fill="#555555" d="M36.527,2.52c0,0.021,0,0.042,0,0.062c-0.702,0.973-1.516,1.836-2.468,2.57
	c-0.088,0.068-0.123,0.244-0.131,0.373c-0.057,0.867-0.031,1.746-0.161,2.601c-0.391,2.568-1.367,4.912-2.924,6.995
	c-1.649,2.207-3.742,3.853-6.326,4.849c-2.392,0.922-4.862,1.211-7.407,0.924c-2.141-0.242-4.124-0.938-5.975-2.027
	c-0.071-0.042-0.132-0.102-0.197-0.154c2.814,0.169,5.331-0.536,7.629-2.267c-2.433-0.215-4.038-1.413-4.933-3.652
	c0.426,0.021,0.787,0.064,1.145,0.051c0.363-0.014,0.724-0.083,1.086-0.127c0.006-0.032,0.012-0.063,0.018-0.095
	c-1.204-0.287-2.198-0.91-2.955-1.868c-0.755-0.957-1.168-2.046-1.124-3.332c0.739,0.365,1.468,0.589,2.265,0.601
	c-1.086-0.833-1.827-1.889-2.122-3.222c-0.295-1.329-0.102-2.591,0.582-3.801c2.896,3.371,6.498,5.221,10.881,5.523
	c0-0.769-0.111-1.5,0.021-2.184c0.394-2.034,1.603-3.444,3.59-4.066c1.976-0.618,3.759-0.182,5.297,1.224
	c0.101,0.092,0.301,0.153,0.432,0.124c0.954-0.208,1.867-0.539,2.724-1.012c0.103-0.057,0.21-0.108,0.368-0.188
	c-0.417,1.239-1.168,2.135-2.161,2.853C34.685,3.185,35.617,2.896,36.527,2.52z"/>
<path d="M36.527,23.52c0,0.021,0,0.042,0,0.062c-0.702,0.973-1.516,1.836-2.468,2.57c-0.088,0.068-0.123,0.244-0.131,0.373
	c-0.057,0.867-0.031,1.746-0.161,2.601c-0.391,2.568-1.367,4.912-2.924,6.995c-1.649,2.207-3.742,3.853-6.326,4.849
	c-2.392,0.922-4.862,1.211-7.407,0.924c-2.141-0.242-4.124-0.938-5.975-2.027c-0.071-0.042-0.132-0.102-0.197-0.154
	c2.814,0.169,5.331-0.536,7.629-2.267c-2.433-0.215-4.038-1.413-4.933-3.652c0.426,0.021,0.787,0.064,1.145,0.051
	c0.363-0.014,0.724-0.083,1.086-0.127c0.006-0.032,0.012-0.063,0.018-0.095c-1.204-0.287-2.198-0.91-2.955-1.868
	c-0.755-0.957-1.168-2.046-1.124-3.332c0.739,0.365,1.468,0.589,2.265,0.601c-1.086-0.833-1.827-1.889-2.122-3.222
	c-0.295-1.329-0.102-2.591,0.582-3.801c2.896,3.371,6.498,5.221,10.881,5.523c0-0.769-0.111-1.5,0.021-2.184
	c0.394-2.034,1.603-3.444,3.59-4.066c1.976-0.618,3.759-0.182,5.297,1.224c0.101,0.092,0.301,0.153,0.432,0.124
	c0.954-0.208,1.867-0.539,2.724-1.012c0.103-0.057,0.21-0.108,0.368-0.188c-0.417,1.239-1.168,2.135-2.161,2.853
	C34.685,24.185,35.617,23.896,36.527,23.52z"/>
<g>
	<g>
		<path fill="#555555" d="M43.849,12.441c-0.173-0.287-0.347-0.562-0.507-0.845c-0.299-0.527-0.343-1.082-0.153-1.656
			c0.047-0.142,0.099-0.283,0.155-0.441c-0.216,0.013-0.418,0.031-0.62,0.037c-1.023,0.03-2.015-0.112-2.867-0.718
			c-1.018-0.725-1.717-1.687-1.908-2.949c-0.179-1.183,0.097-2.274,0.756-3.269c0.804-1.214,1.929-1.978,3.33-2.329
			c0.727-0.183,1.474-0.261,2.224-0.265c1.838-0.008,3.675-0.003,5.513-0.003c0.033,0,0.066,0,0.137,0
			c-0.055,0.039-0.081,0.061-0.11,0.078c-0.494,0.289-0.987,0.58-1.484,0.864c-0.065,0.037-0.148,0.059-0.223,0.059
			c-0.502,0.005-1.004,0.003-1.536,0.003c0.13,0.104,0.241,0.187,0.345,0.278c0.551,0.485,0.93,1.09,1.217,1.758
			c0.223,0.517,0.28,1.063,0.282,1.618c0.002,0.719-0.098,1.417-0.43,2.066c-0.235,0.459-0.566,0.848-0.927,1.21
			c-0.215,0.216-0.457,0.406-0.676,0.619c-0.32,0.31-0.618,0.642-0.738,1.086c-0.107,0.393-0.039,0.751,0.224,1.083
			c0.306,0.386,0.688,0.683,1.065,0.986c0.648,0.521,1.253,1.084,1.759,1.747c0.34,0.446,0.519,0.96,0.611,1.506
			c0.143,0.842,0.087,1.666-0.247,2.46c-0.269,0.638-0.677,1.178-1.166,1.663c-0.877,0.87-1.948,1.366-3.134,1.64
			c-0.863,0.2-1.741,0.29-2.625,0.272c-1.049-0.021-2.084-0.15-3.061-0.572c-0.772-0.334-1.424-0.832-1.919-1.511
			c-0.704-0.967-0.766-2.012-0.343-3.115c0.378-0.986,1.077-1.664,1.98-2.163c0.829-0.459,1.709-0.783,2.643-0.939
			c0.502-0.084,1.01-0.132,1.517-0.187C43.238,12.478,43.547,12.463,43.849,12.441z M43.583,19.846
			c0.646-0.014,1.283-0.071,1.893-0.281c1.175-0.406,1.972-1.15,2.091-2.452c0.077-0.84-0.174-1.579-0.783-2.176
			c-0.641-0.628-1.366-1.154-2.099-1.667c-0.041-0.029-0.099-0.049-0.15-0.048c-0.468,0.004-0.937-0.012-1.402,0.026
			c-0.777,0.062-1.532,0.237-2.26,0.523c-0.529,0.208-1,0.496-1.371,0.939c-0.764,0.911-0.855,2.264-0.208,3.262
			c0.392,0.604,0.951,1.016,1.589,1.324C41.737,19.706,42.654,19.82,43.583,19.846z M46.091,6.01
			c-0.008-0.002-0.016-0.003-0.024-0.005c-0.015-0.246-0.019-0.494-0.047-0.738c-0.085-0.731-0.287-1.43-0.58-2.104
			c-0.273-0.626-0.6-1.214-1.138-1.659c-0.73-0.604-1.824-0.783-2.712-0.3c-0.872,0.475-1.224,1.271-1.33,2.2
			c-0.086,0.762,0.031,1.51,0.273,2.235c0.303,0.904,0.704,1.75,1.424,2.412c0.63,0.579,1.352,0.853,2.206,0.689
			c0.889-0.171,1.546-0.634,1.769-1.554C46.026,6.803,46.041,6.402,46.091,6.01z"/>
		<path fill="#555555" d="M54.492,3.014c0.975,0,1.927,0,2.888,0c0,0.475,0,0.936,0,1.411c-0.96,0-1.912,0-2.878,0
			c0,0.966,0,1.918,0,2.883c-0.053,0.003-0.093,0.007-0.133,0.007c-0.381,0-0.762-0.004-1.142,0.003
			c-0.109,0.002-0.143-0.028-0.142-0.14c0.005-0.862,0.002-1.724,0.002-2.586c0-0.049,0-0.099,0-0.166c-0.06,0-0.109,0-0.158,0
			c-0.862,0-1.724-0.002-2.586,0.002c-0.111,0.001-0.153-0.024-0.15-0.144c0.008-0.376,0.003-0.753,0.003-1.13
			c0-0.041,0.004-0.082,0.006-0.136c0.959,0,1.911,0,2.882,0c0-0.968,0-1.923,0-2.886c0.477,0,0.935,0,1.408,0
			C54.492,1.087,54.492,2.039,54.492,3.014z"/>
	</g>
</g>
<g>
	<path d="M43.849,33.441c-0.173-0.287-0.347-0.562-0.507-0.845c-0.299-0.527-0.343-1.082-0.153-1.656
		c0.047-0.142,0.099-0.283,0.155-0.441c-0.216,0.013-0.418,0.031-0.62,0.037c-1.023,0.03-2.015-0.112-2.867-0.718
		c-1.018-0.725-1.717-1.687-1.908-2.949c-0.179-1.183,0.097-2.274,0.756-3.269c0.804-1.214,1.929-1.978,3.33-2.329
		c0.727-0.183,1.474-0.261,2.224-0.265c1.838-0.008,3.675-0.003,5.513-0.003c0.033,0,0.066,0,0.137,0
		c-0.055,0.039-0.081,0.061-0.11,0.078c-0.494,0.289-0.987,0.58-1.484,0.864c-0.065,0.037-0.148,0.059-0.223,0.059
		c-0.502,0.005-1.004,0.003-1.536,0.003c0.13,0.104,0.241,0.187,0.345,0.278c0.551,0.485,0.93,1.09,1.217,1.758
		c0.223,0.517,0.28,1.063,0.282,1.618c0.002,0.719-0.098,1.417-0.43,2.066c-0.235,0.459-0.566,0.848-0.927,1.21
		c-0.215,0.216-0.457,0.406-0.676,0.619c-0.32,0.31-0.618,0.642-0.738,1.086c-0.107,0.393-0.039,0.751,0.224,1.083
		c0.306,0.386,0.688,0.683,1.065,0.986c0.648,0.521,1.253,1.084,1.759,1.747c0.34,0.446,0.519,0.96,0.611,1.506
		c0.143,0.842,0.087,1.666-0.247,2.46c-0.269,0.638-0.677,1.178-1.166,1.663c-0.877,0.87-1.948,1.366-3.134,1.64
		c-0.863,0.2-1.741,0.29-2.625,0.272c-1.049-0.021-2.084-0.15-3.061-0.572c-0.772-0.334-1.424-0.832-1.919-1.511
		c-0.704-0.967-0.766-2.012-0.343-3.115c0.378-0.986,1.077-1.664,1.98-2.163c0.829-0.459,1.709-0.783,2.643-0.939
		c0.502-0.084,1.01-0.132,1.517-0.187C43.238,33.478,43.547,33.463,43.849,33.441z M43.583,40.846
		c0.646-0.014,1.283-0.071,1.893-0.281c1.175-0.406,1.972-1.15,2.091-2.452c0.077-0.84-0.174-1.579-0.783-2.176
		c-0.641-0.628-1.366-1.154-2.099-1.667c-0.041-0.029-0.099-0.049-0.15-0.048c-0.468,0.004-0.937-0.012-1.402,0.026
		c-0.777,0.062-1.532,0.237-2.26,0.523c-0.529,0.208-1,0.496-1.371,0.939c-0.764,0.911-0.855,2.264-0.208,3.262
		c0.392,0.604,0.951,1.016,1.589,1.324C41.737,40.706,42.654,40.82,43.583,40.846z M46.091,27.01
		c-0.008-0.002-0.016-0.003-0.024-0.005c-0.015-0.246-0.019-0.494-0.047-0.738c-0.085-0.731-0.287-1.43-0.58-2.104
		c-0.273-0.626-0.6-1.214-1.138-1.659c-0.73-0.604-1.824-0.783-2.712-0.3c-0.872,0.475-1.224,1.271-1.33,2.2
		c-0.086,0.762,0.031,1.51,0.273,2.235c0.303,0.904,0.704,1.75,1.424,2.412c0.63,0.579,1.352,0.853,2.206,0.689
		c0.889-0.171,1.546-0.634,1.769-1.554C46.026,27.803,46.041,27.402,46.091,27.01z"/>
	<path d="M54.492,24.014c0.975,0,1.927,0,2.888,0c0,0.475,0,0.936,0,1.411c-0.96,0-1.912,0-2.878,0c0,0.966,0,1.918,0,2.883
		c-0.053,0.003-0.093,0.007-0.133,0.007c-0.381,0-0.762-0.004-1.142,0.003c-0.109,0.002-0.143-0.028-0.142-0.14
		c0.005-0.862,0.002-1.724,0.002-2.586c0-0.049,0-0.099,0-0.166c-0.06,0-0.109,0-0.158,0c-0.862,0-1.724-0.002-2.586,0.002
		c-0.111,0.001-0.153-0.024-0.15-0.144c0.008-0.376,0.003-0.753,0.003-1.13c0-0.041,0.004-0.082,0.006-0.136
		c0.959,0,1.911,0,2.882,0c0-0.968,0-1.923,0-2.886c0.477,0,0.935,0,1.408,0C54.492,22.087,54.492,23.039,54.492,24.014z"/>
</g>
<g>
	<path d="M69.819,36.488c-0.545,0-1.009-0.136-1.394-0.409c-0.384-0.272-0.629-0.711-0.733-1.316
		c-0.545,0.613-1.096,1.052-1.654,1.316c-0.557,0.264-1.143,0.396-1.758,0.396c-0.44,0-0.823-0.078-1.147-0.233
		c-0.324-0.156-0.594-0.373-0.811-0.649s-0.376-0.603-0.48-0.98c-0.103-0.376-0.155-0.78-0.155-1.213
		c0-0.527,0.069-1.065,0.207-1.614c0.138-0.55,0.344-1.083,0.616-1.602c0.272-0.518,0.61-1.005,1.012-1.459
		c0.401-0.454,0.867-0.852,1.394-1.194c0.527-0.341,1.117-0.611,1.77-0.811c0.652-0.198,1.364-0.298,2.133-0.298
		c0.32,0,0.612,0.013,0.876,0.038c0.263,0.026,0.508,0.063,0.733,0.111c0.225,0.048,0.436,0.106,0.635,0.175
		c0.198,0.069,0.398,0.151,0.596,0.246l-1.751,4.8c-0.19,0.562-0.306,1.023-0.349,1.381c-0.043,0.359-0.031,0.643,0.038,0.85
		c0.07,0.208,0.184,0.35,0.344,0.429c0.16,0.078,0.348,0.116,0.565,0.116c0.388,0,0.76-0.147,1.115-0.44
		c0.355-0.295,0.668-0.701,0.941-1.219c0.272-0.519,0.491-1.134,0.656-1.842c0.164-0.709,0.246-1.479,0.246-2.31
		c0-0.933-0.132-1.762-0.395-2.484c-0.264-0.722-0.641-1.327-1.129-1.816c-0.488-0.489-1.081-0.858-1.777-1.109
		c-0.697-0.25-1.473-0.376-2.329-0.376c-1.15,0-2.224,0.246-3.223,0.739c-0.999,0.493-1.868,1.177-2.607,2.05
		c-0.74,0.873-1.322,1.906-1.745,3.1c-0.423,1.193-0.635,2.49-0.635,3.891c0,1.176,0.163,2.214,0.487,3.113
		c0.324,0.899,0.778,1.654,1.362,2.263c0.584,0.61,1.286,1.072,2.108,1.388c0.821,0.316,1.729,0.474,2.723,0.474
		c0.623,0,1.2-0.035,1.732-0.105c0.532-0.069,1.015-0.162,1.452-0.279c0.437-0.116,0.828-0.248,1.174-0.396
		c0.346-0.147,0.64-0.293,0.882-0.44c0.19-0.105,0.357-0.165,0.499-0.182c0.143-0.018,0.264-0.002,0.363,0.045
		c0.099,0.048,0.179,0.114,0.24,0.201c0.06,0.087,0.108,0.182,0.143,0.285l0.221,0.882c-0.899,0.588-1.922,1.068-3.068,1.44
		C68.797,41.814,67.511,42,66.083,42c-1.314,0-2.507-0.213-3.58-0.642c-1.072-0.428-1.987-1.038-2.743-1.828
		c-0.757-0.792-1.343-1.749-1.758-2.873c-0.415-1.124-0.623-2.387-0.623-3.787c0-1.081,0.13-2.125,0.39-3.133
		c0.26-1.007,0.623-1.952,1.089-2.834c0.467-0.881,1.029-1.684,1.686-2.406c0.658-0.722,1.382-1.343,2.173-1.862
		c0.791-0.518,1.64-0.92,2.548-1.205C66.174,21.143,67.113,21,68.082,21c1.038,0,2.017,0.179,2.938,0.538s1.723,0.874,2.406,1.543
		c0.683,0.67,1.224,1.485,1.621,2.446c0.398,0.96,0.597,2.036,0.597,3.229c0,1.09-0.154,2.104-0.461,3.042
		c-0.306,0.938-0.722,1.755-1.245,2.451c-0.524,0.697-1.14,1.243-1.848,1.641C71.38,36.289,70.623,36.488,69.819,36.488z
		 M65.15,34.477c0.198,0,0.404-0.036,0.615-0.11c0.212-0.074,0.42-0.202,0.623-0.383c0.204-0.182,0.402-0.423,0.596-0.726
		c0.195-0.302,0.371-0.687,0.526-1.154l1.336-3.684c-0.251-0.052-0.501-0.078-0.753-0.078c-0.518,0-1.019,0.134-1.498,0.402
		c-0.48,0.268-0.906,0.623-1.278,1.064c-0.372,0.44-0.667,0.945-0.888,1.511c-0.221,0.567-0.331,1.148-0.331,1.745
		c0,0.441,0.089,0.787,0.266,1.038C64.542,34.352,64.804,34.477,65.15,34.477z"/>
</g>
<g>
	<path fill="#555555" d="M69.819,15.488c-0.545,0-1.009-0.136-1.394-0.409c-0.384-0.272-0.629-0.711-0.733-1.316
		c-0.545,0.613-1.096,1.052-1.654,1.316c-0.557,0.264-1.143,0.396-1.758,0.396c-0.44,0-0.823-0.078-1.147-0.233
		c-0.324-0.156-0.594-0.373-0.811-0.649c-0.216-0.277-0.376-0.603-0.48-0.98c-0.103-0.376-0.155-0.78-0.155-1.213
		c0-0.527,0.069-1.065,0.207-1.614c0.138-0.55,0.344-1.083,0.616-1.602c0.272-0.518,0.61-1.005,1.012-1.459
		c0.401-0.454,0.867-0.852,1.394-1.194c0.527-0.341,1.117-0.611,1.77-0.811c0.652-0.198,1.364-0.298,2.133-0.298
		c0.32,0,0.612,0.013,0.876,0.038c0.263,0.026,0.508,0.063,0.733,0.111c0.225,0.048,0.436,0.106,0.635,0.175
		c0.198,0.069,0.398,0.151,0.596,0.246l-1.751,4.8c-0.19,0.562-0.306,1.023-0.349,1.381c-0.043,0.359-0.031,0.643,0.038,0.85
		c0.07,0.208,0.184,0.35,0.344,0.429c0.16,0.078,0.348,0.116,0.565,0.116c0.388,0,0.76-0.147,1.115-0.44
		c0.355-0.295,0.668-0.701,0.941-1.219c0.272-0.519,0.491-1.134,0.656-1.842c0.164-0.709,0.246-1.479,0.246-2.31
		c0-0.933-0.132-1.762-0.395-2.484c-0.264-0.722-0.641-1.327-1.129-1.816c-0.488-0.489-1.081-0.858-1.777-1.109
		c-0.697-0.25-1.473-0.376-2.329-0.376c-1.15,0-2.224,0.246-3.223,0.739c-0.999,0.493-1.868,1.177-2.607,2.05
		c-0.74,0.873-1.322,1.906-1.745,3.1c-0.423,1.193-0.635,2.49-0.635,3.891c0,1.176,0.163,2.214,0.487,3.113
		c0.324,0.899,0.778,1.654,1.362,2.263c0.584,0.61,1.286,1.072,2.108,1.388c0.821,0.316,1.729,0.474,2.723,0.474
		c0.623,0,1.2-0.035,1.732-0.105c0.532-0.069,1.015-0.162,1.452-0.279c0.437-0.116,0.828-0.248,1.174-0.396
		c0.346-0.147,0.64-0.293,0.882-0.44c0.19-0.105,0.357-0.165,0.499-0.182c0.143-0.018,0.264-0.002,0.363,0.045
		c0.099,0.048,0.179,0.114,0.24,0.201c0.06,0.087,0.108,0.182,0.143,0.285l0.221,0.882c-0.899,0.588-1.922,1.068-3.068,1.44
		C68.797,20.814,67.511,21,66.083,21c-1.314,0-2.507-0.213-3.58-0.642c-1.072-0.428-1.987-1.038-2.743-1.828
		c-0.757-0.792-1.343-1.749-1.758-2.873c-0.415-1.124-0.623-2.387-0.623-3.787c0-1.081,0.13-2.125,0.39-3.133
		c0.26-1.007,0.623-1.952,1.089-2.834c0.467-0.881,1.029-1.684,1.686-2.406c0.658-0.722,1.382-1.343,2.173-1.862
		c0.791-0.518,1.64-0.92,2.548-1.205C66.174,0.143,67.113,0,68.082,0c1.038,0,2.017,0.179,2.938,0.538s1.723,0.874,2.406,1.543
		c0.683,0.67,1.224,1.485,1.621,2.446c0.398,0.96,0.597,2.036,0.597,3.229c0,1.09-0.154,2.104-0.461,3.042
		c-0.306,0.938-0.722,1.755-1.245,2.451c-0.524,0.697-1.14,1.243-1.848,1.641C71.38,15.289,70.623,15.488,69.819,15.488z
		 M65.15,13.477c0.198,0,0.404-0.036,0.615-0.11c0.212-0.074,0.42-0.202,0.623-0.383c0.204-0.182,0.402-0.423,0.596-0.726
		c0.195-0.302,0.371-0.687,0.526-1.154l1.336-3.684c-0.251-0.052-0.501-0.078-0.753-0.078c-0.518,0-1.019,0.134-1.498,0.402
		c-0.48,0.268-0.906,0.623-1.278,1.064c-0.372,0.44-0.667,0.945-0.888,1.511c-0.221,0.567-0.331,1.148-0.331,1.745
		c0,0.441,0.089,0.787,0.266,1.038C64.542,13.352,64.804,13.477,65.15,13.477z"/>
</g>
</svg>
