<?xml version="1.0" encoding="utf-8"?>
<!-- Generator: Adobe Illustrator 17.0.0, SVG Export Plug-In . SVG Version: 6.00 Build 0)  -->
<!DOCTYPE svg PUBLIC "-//W3C//DTD SVG 1.1//EN" "http://www.w3.org/Graphics/SVG/1.1/DTD/svg11.dtd">
<svg version="1.1" id="Calque_1" xmlns="http://www.w3.org/2000/svg" xmlns:xlink="http://www.w3.org/1999/xlink" x="0px" y="0px"
	 width="122.436px" height="22.004px" viewBox="0 0 122.436 22.004" enable-background="new 0 0 122.436 22.004"
	 xml:space="preserve">
<path fill="#E86200" d="M11.002,0C4.926,0,0,4.926,0,11.002c0,2.995,1.197,5.709,3.138,7.693L0,22.004h11.002
	c6.076,0,11.002-4.926,11.002-11.002S17.078,0,11.002,0z"/>
<g>
	<path fill="#E86200" d="M54.37,0.585v3.23h-6.372v17.905h-3.932V3.815h-6.372v-3.23H54.37z"/>
	<path fill="#E86200" d="M62.365,6.49c0.945,0,1.817,0.151,2.616,0.453c0.799,0.302,1.486,0.743,2.061,1.323
		c0.575,0.58,1.025,1.291,1.352,2.134c0.326,0.843,0.489,1.805,0.489,2.887c0,0.545-0.058,0.913-0.175,1.103
		c-0.117,0.19-0.341,0.285-0.673,0.285h-9.281c0.058,0.77,0.194,1.435,0.409,1.995c0.214,0.56,0.497,1.023,0.847,1.389
		c0.351,0.365,0.767,0.638,1.25,0.818c0.483,0.18,1.016,0.271,1.601,0.271c0.585,0,1.088-0.068,1.512-0.205
		c0.424-0.137,0.794-0.288,1.111-0.453c0.316-0.166,0.594-0.317,0.833-0.453c0.238-0.136,0.47-0.205,0.694-0.205
		c0.302,0,0.526,0.112,0.673,0.336l1.038,1.316c-0.4,0.467-0.848,0.86-1.345,1.176c-0.497,0.317-1.016,0.57-1.557,0.76
		c-0.541,0.19-1.091,0.324-1.652,0.402c-0.56,0.078-1.103,0.117-1.63,0.117c-1.043,0-2.013-0.173-2.909-0.519
		c-0.896-0.346-1.676-0.857-2.338-1.534c-0.663-0.677-1.184-1.515-1.564-2.514c-0.379-0.999-0.57-2.156-0.57-3.471
		c0-1.023,0.165-1.985,0.497-2.887c0.331-0.901,0.806-1.685,1.425-2.353c0.619-0.667,1.374-1.196,2.265-1.586
		S61.244,6.49,62.365,6.49z M62.438,9.077c-1.053,0-1.876,0.297-2.47,0.891c-0.595,0.594-0.975,1.437-1.14,2.529h6.811
		c0-0.468-0.066-0.909-0.197-1.323c-0.131-0.414-0.329-0.777-0.592-1.088c-0.263-0.312-0.597-0.558-1.002-0.739
		C63.444,9.166,62.974,9.077,62.438,9.077z"/>
	<path fill="#E86200" d="M78.164,0v21.719h-3.61V0H78.164z"/>
	<path fill="#E86200" d="M88.351,0v21.719h-3.61V0H88.351z"/>
	<path fill="#E86200" d="M101.271,6.49c0.945,0,1.817,0.151,2.616,0.453c0.799,0.302,1.486,0.743,2.061,1.323
		s1.025,1.291,1.352,2.134c0.326,0.843,0.489,1.805,0.489,2.887c0,0.545-0.058,0.913-0.175,1.103
		c-0.117,0.19-0.341,0.285-0.673,0.285h-9.281c0.058,0.77,0.194,1.435,0.409,1.995c0.214,0.56,0.497,1.023,0.847,1.389
		c0.351,0.365,0.767,0.638,1.25,0.818c0.483,0.18,1.016,0.271,1.601,0.271s1.088-0.068,1.512-0.205
		c0.424-0.137,0.794-0.288,1.111-0.453c0.316-0.166,0.594-0.317,0.833-0.453c0.238-0.136,0.47-0.205,0.694-0.205
		c0.302,0,0.526,0.112,0.673,0.336l1.038,1.316c-0.4,0.467-0.848,0.86-1.345,1.176c-0.497,0.317-1.016,0.57-1.557,0.76
		c-0.541,0.19-1.091,0.324-1.652,0.402c-0.56,0.078-1.103,0.117-1.63,0.117c-1.043,0-2.013-0.173-2.909-0.519
		c-0.896-0.346-1.676-0.857-2.338-1.534c-0.663-0.677-1.184-1.515-1.564-2.514c-0.379-0.999-0.57-2.156-0.57-3.471
		c0-1.023,0.165-1.985,0.497-2.887c0.331-0.901,0.806-1.685,1.425-2.353c0.619-0.667,1.374-1.196,2.265-1.586
		S100.151,6.49,101.271,6.49z M101.345,9.077c-1.053,0-1.876,0.297-2.47,0.891c-0.595,0.594-0.975,1.437-1.14,2.529h6.811
		c0-0.468-0.066-0.909-0.197-1.323c-0.131-0.414-0.329-0.777-0.592-1.088c-0.263-0.312-0.597-0.558-1.002-0.739
		C102.35,9.166,101.88,9.077,101.345,9.077z"/>
	<path fill="#E86200" d="M113.417,21.719V6.723h2.12c0.37,0,0.629,0.066,0.774,0.197c0.146,0.131,0.244,0.368,0.293,0.709
		l0.205,1.696c0.477-0.897,1.038-1.601,1.681-2.112s1.403-0.767,2.28-0.767c0.692,0,1.247,0.151,1.666,0.453l-0.234,2.704
		c-0.049,0.175-0.119,0.3-0.212,0.373s-0.217,0.11-0.373,0.11c-0.146,0-0.363-0.024-0.65-0.073c-0.288-0.049-0.568-0.073-0.84-0.073
		c-0.4,0-0.755,0.058-1.067,0.175c-0.312,0.117-0.592,0.285-0.841,0.504c-0.248,0.219-0.467,0.485-0.657,0.796
		c-0.19,0.312-0.368,0.667-0.533,1.067v9.237H113.417z"/>
</g>
</svg>
